<svg xmlns="http://www.w3.org/2000/svg" width="48" height="48" viewBox="0 0 48 48">
    <g data-name="icon/list/member">
        <path data-name="패스 59" d="M32.3 22.082a19.941 19.941 0 0 0-2.885-1.857l-.551-.289.4-.481a11.893 11.893 0 1 0-18.361 0l.4.481-.552.289A20.059 20.059 0 0 0 0 37.48a1.616 1.616 0 0 0 3.232 0 16.758 16.758 0 0 1 10.716-15.172l.221-.09.209.114a12.064 12.064 0 0 0 11.394 0l.209-.114.221.09a16.72 16.72 0 0 1 3.6 1.936 10.149 10.149 0 0 1 2.49-2.162m-5.579-4.672a8.651 8.651 0 0 1-1.078 1.078 8.5 8.5 0 0 1-11.126 0 8.663 8.663 0 1 1 12.2-1.078" transform="translate(0 4.569)" style="fill:#898b9a"/>
        <path data-name="패스 11" d="M16.57 7.487h-5.934v-5.94A1.572 1.572 0 0 0 9.067 0h-.021A1.562 1.562 0 0 0 7.5 1.553V7.5H1.569a1.569 1.569 0 1 0 0 3.138H7.5v5.94a1.568 1.568 0 0 0 1.569 1.548h.021a1.562 1.562 0 0 0 1.548-1.554v-5.948h5.932a1.569 1.569 0 1 0 0-3.138" transform="translate(29.86 27.543)" style="fill:#8a8d9d"/>
        <path data-name="사각형 108" style="fill:none" d="M0 0h48v48H0z"/>
    </g>
</svg>
