<svg xmlns="http://www.w3.org/2000/svg" width="48" height="48" viewBox="0 0 48 48">
    <g data-name="icon/chat/plue00">
        <path data-name="패스 15" d="M23 41.853A1.617 1.617 0 0 1 21.575 41l-3.509-6.542h-.838A17.229 17.229 0 0 1 17.229 0h11.542a17.229 17.229 0 0 1 0 34.458h-.838L24.425 41a1.617 1.617 0 0 1-1.425.853m-5.771-38.62a14 14 0 0 0 0 27.99h1.805a1.617 1.617 0 0 1 1.425.853L23 36.815l2.541-4.738a1.618 1.618 0 0 1 1.425-.853h1.805a14 14 0 0 0 0-27.99z" transform="translate(1.5 3.5)" style="fill:#fff"/>
        <path data-name="사각형 53" style="fill:none" d="M0 0h48v48H0z"/>
        <path data-name="패스 16" d="M12.789 5.779h-4.58V1.193A1.213 1.213 0 0 0 7 0h-.018a1.206 1.206 0 0 0-1.195 1.2v4.586H1.211a1.211 1.211 0 1 0 0 2.422h4.58v4.585A1.21 1.21 0 0 0 7 13.986h.016a1.206 1.206 0 0 0 1.195-1.2V8.2h4.576a1.211 1.211 0 1 0 0-2.422" transform="translate(17.087 13.422)" style="stroke:#fff;fill:#fff"/>
    </g>
</svg>
