<?xml version="1.0" encoding="UTF-8"?>
<svg width="63px" height="33px" viewBox="0 0 63 33" version="1.1" xmlns="http://www.w3.org/2000/svg" xmlns:xlink="http://www.w3.org/1999/xlink">
    <title>dart-green</title>
    <g id="Page-1" stroke="none" stroke-width="1" fill="none" fill-rule="evenodd">
        <g id="dart-green" transform="translate(0.000000, -0.000000)" fill="#04BE3D">
            <g id="Group" transform="translate(0.480000, 12.416573)" fill-rule="nonzero" font-family="Pretendard-Medium, Pretendard" font-size="17" font-weight="400">
                <text id="NOW">
                    <tspan x="0" y="16">NOW</tspan>
                </text>
            </g>
            <g id="Group" transform="translate(0.000000, -0.000000)">
                <g id="Path" transform="translate(0.000000, 0.000000)">
                    <g transform="translate(0.000000, 0.000000)">
                        <path d="M25.003,11.995573 L11.751,11.995573 C11.3961361,11.99877 11.054538,11.8608594 10.8013608,11.6121831 C10.5481836,11.3635068 10.4041684,11.0244372 10.401,10.669573 L10.401,8.32157305 C10.4041684,7.96670888 10.5481836,7.62763929 10.8013608,7.37896299 C11.054538,7.13028669 11.3961361,6.99237614 11.751,6.99557305 L25.003,6.99557305 C25.3578639,6.99237614 25.699462,7.13028669 25.9526392,7.37896299 C26.2058164,7.62763929 26.3498316,7.96670888 26.353,8.32157305 L26.353,10.668573 C26.3498316,11.0234372 26.2058164,11.3625068 25.9526392,11.6111831 C25.699462,11.8598594 25.3578639,11.99777 25.003,11.994573" fill-rule="nonzero"></path>
                        <path d="M62.511,9.66957305 C62.4639229,9.49303904 62.4075102,9.31912781 62.342,9.14857305 C61.565,6.94857305 60.486,4.68157305 59.554,2.54857305 C58.997,1.27157305 57.747,1.01157305 56.485,0.790573048 C54.8168179,0.500209675 53.142791,0.244487982 51.464,0.0235730477 C49.011,-0.276426952 47.329,2.35457305 45.985,4.07057305 C44.852,5.52157305 44.016,6.85157305 43.049,7.93757305 L43.049,11.037573 C43.916,12.008573 45.049,14.065573 45.983,15.277573 C47.313,16.998573 49.015,19.641573 51.462,19.324573 C52.927,19.135573 55.028,18.812573 56.483,18.558573 C57.746,18.339573 58.993,18.080573 59.553,16.796573 C60.481,14.665573 61.562,12.396573 62.341,10.196573 C62.418,9.98857305 62.426,9.95157305 62.51,9.67557305" fill-rule="nonzero"></path>
                        <path d="M23.293,11.050573 L43.049,11.050573 L43.049,7.99857305 L8.79,7.99857305 C5.80258109,8.08340642 2.84263439,8.59491484 1.74055215e-15,9.51757305 C2.84168492,10.4439285 5.80140504,10.9584868 8.789,11.045573 L9.572,11.045573 L23.293,11.050573 Z"></path>
                    </g>
                </g>
            </g>
        </g>
    </g>
</svg>