<svg xmlns="http://www.w3.org/2000/svg" width="48.164" height="46.91" viewBox="0 0 48.164 46.91">
    <defs>
        <clipPath id="0tkgsscg7a">
            <path data-name="사각형 68" style="fill:#fff" d="M0 0h48.164v46.91H0z"/>
        </clipPath>
    </defs>
    <g data-name="ic/gnb/member on">
        <g data-name="그룹 156">
            <g data-name="그룹 155" style="clip-path:url(#0tkgsscg7a)">
                <path data-name="패스 21" d="m35.284 24.267-.661-.35.475-.578a14.268 14.268 0 1 0-22.027 0l.475.578-.662.35A24.061 24.061 0 0 0 0 44.968 1.938 1.938 0 0 0 1.942 46.9c.049 0 .1-.011.145-.014v.023h43.88v-.026a2 2 0 0 0 .254.026 1.939 1.939 0 0 0 1.942-1.935v-.008a24.06 24.06 0 0 0-12.879-20.7m-18.26 2.4c-.07.018-.138.04-.207.059l.18-.074z" style="fill:#fff"/>
            </g>
        </g>
    </g>
</svg>
