<svg xmlns="http://www.w3.org/2000/svg" width="48" height="48" viewBox="0 0 48 48">
    <g data-name="그룹 2">
        <path data-name="패스 2" d="m37.586 35.578-10.2-10.2A15.471 15.471 0 0 0 15.752 0 15.509 15.509 0 0 0 3.317 5.892a15.281 15.281 0 0 0-3.27 8.334 15.484 15.484 0 0 0 25.337 13.152L35.53 37.523a1.535 1.535 0 0 0 1.08.446h.061a1.351 1.351 0 0 0 .993-.472 1.418 1.418 0 0 0-.077-1.918m-9.448-20.1a12.659 12.659 0 0 1-21.6 8.949 12.655 12.655 0 0 1 17.9-17.9 12.566 12.566 0 0 1 3.707 8.948" transform="translate(5 5)" style="fill:#fff;stroke:#fff;stroke-width:.5px"/>
    </g>
    <path data-name="사각형 20" style="fill:none" d="M0 0h48v48H0z"/>
</svg>
