<svg xmlns="http://www.w3.org/2000/svg" width="64.031" height="30" viewBox="0 0 64.031 30">
  <g id="icon_dart_green" data-name="icon / dart green" transform="translate(-13 0.001)">
    <g id="그룹_196" data-name="그룹 196" transform="translate(16.475 16.631)">
      <path id="패스_88" data-name="패스 88" d="M7.907.164V8.97H7.8L1.7.164H0V12.2H1.827V3.407h.111l6.1,8.788H9.716V.164Z" fill="#22be3d"/>
      <path id="패스_89" data-name="패스 89" d="M17.186,12.359c-3.131,0-5.422-2.337-5.422-6.179S14.055,0,17.186,0c3.114,0,5.422,2.332,5.422,6.18s-2.308,6.179-5.422,6.179m0-10.691c-2.068,0-3.607,1.586-3.607,4.512s1.539,4.511,3.607,4.511S20.793,9.1,20.793,6.18s-1.539-4.512-3.607-4.512" fill="#22be3d"/>
      <path id="패스_90" data-name="패스 90" d="M26.875,12.2,23.538.164h1.927l2.338,9.3h.112l2.432-9.3h1.9l2.433,9.3h.1l2.338-9.3h1.927L35.716,12.2H33.872L31.346,3.207h-.095L28.726,12.2Z" fill="#22be3d"/>
    </g>
    <path id="패스_85" data-name="패스 85" d="M39.523,12H26.271a1.338,1.338,0,0,1-1.35-1.326V8.327A1.338,1.338,0,0,1,26.271,7H39.523a1.338,1.338,0,0,1,1.35,1.326v2.347A1.338,1.338,0,0,1,39.523,12" fill="#22be3d"/>
    <path id="패스_86" data-name="패스 86" d="M77.031,9.675a5.273,5.273,0,0,0-.169-.521c-.777-2.2-1.856-4.467-2.788-6.6C73.517,1.277,72.267,1.017,71,.8,69.548.542,67.448.213,65.984.029c-2.453-.3-4.135,2.331-5.479,4.047-1.133,1.451-1.969,2.781-2.936,3.867v3.1c.867.971,2,3.028,2.934,4.24,1.33,1.721,3.032,4.364,5.479,4.047,1.465-.189,3.566-.512,5.021-.766,1.263-.219,2.51-.478,3.07-1.762.928-2.131,2.009-4.4,2.788-6.6.077-.208.085-.245.169-.521" fill="#22be3d"/>
    <path id="패스_87" data-name="패스 87" d="M38.053,11.1H58.012V8H23.4a31.551,31.551,0,0,0-8.88,1.541A31.507,31.507,0,0,0,23.4,11.1h.791Z" transform="translate(0 -0.045)" fill="#22be3d" fill-rule="evenodd"/>
    <rect id="사각형_135" data-name="사각형 135" width="64" height="30" transform="translate(13 -0.001)" fill="none"/>
  </g>
</svg>
