<svg data-name="ic/gnb/chat on" xmlns="http://www.w3.org/2000/svg" width="55.047" height="46.91" viewBox="0 0 55.047 46.91">
    <defs>
        <clipPath id="7krloeet4a">
            <path data-name="사각형 69" style="fill:none" d="M0 0h55.047v46.91H0z"/>
        </clipPath>
        <clipPath id="j6qb8ikm8b">
            <path data-name="패스 26" d="M16.008 16.9a3 3 0 1 0 3 3 3 3 0 0 0-3-3z" transform="translate(-13.008 -16.898)" style="fill:#04050b;stroke:#04050b;stroke-linecap:round;stroke-width:4px"/>
        </clipPath>
        <clipPath id="qksvdvy7vc">
            <path data-name="패스 27" d="M26.386 16.9a3 3 0 1 0 3 3 3 3 0 0 0-3-3z" transform="translate(-23.386 -16.898)" style="fill:#04050b;stroke:#04050b;stroke-linecap:round;stroke-width:4px"/>
        </clipPath>
        <clipPath id="1p89y1m6zd">
            <path data-name="패스 28" d="M36.767 16.752a3 3 0 1 0 3 3 3 3 0 0 0-3-3z" transform="translate(-33.768 -16.752)" style="fill:#04050b;stroke:#04050b;stroke-linecap:round;stroke-width:4px"/>
        </clipPath>
    </defs>
    <g data-name="그룹 158">
        <g data-name="그룹 157" style="clip-path:url(#7krloeet4a)">
            <path data-name="패스 22" d="M41.375 46.9a1.81 1.81 0 0 1-1.6-.955L38.091 42.8a10.394 10.394 0 0 1-8.871-5.061 1.812 1.812 0 0 1 1.55-2.75h1.478a15.662 15.662 0 0 0 14.888-10.742 1.813 1.813 0 0 1 2.292-1.147 1.866 1.866 0 0 1 .326.146 10.466 10.466 0 0 1-5.094 19.559l-1.688 3.146a1.81 1.81 0 0 1-1.6.955m-6.346-8.488a6.806 6.806 0 0 0 3.146.763h1a1.813 1.813 0 0 1 1.6.956l.6 1.123.6-1.123a1.811 1.811 0 0 1 1.6-.956h1a6.838 6.838 0 0 0 5.052-11.456 19.268 19.268 0 0 1-14.6 10.693" style="fill:#fff"/>
            <path data-name="패스 23" d="M25.779 46.91a1.811 1.811 0 0 1-1.6-.956l-3.933-7.333h-.936A19.311 19.311 0 0 1 19.31 0h12.938a19.311 19.311 0 0 1 0 38.621h-.939l-3.933 7.333a1.811 1.811 0 0 1-1.6.956M19.31 3.624a15.688 15.688 0 0 0 0 31.376h2.023a1.811 1.811 0 0 1 1.6.956l2.848 5.311 2.848-5.311a1.813 1.813 0 0 1 1.6-.956h2.023a15.686 15.686 0 0 0 0-31.372z" style="fill:#fff"/>
        </g>
    </g>
    <g data-name="그룹 160">
        <g data-name="그룹 159" style="clip-path:url(#7krloeet4a)">
            <path data-name="패스 24" d="M33.2 36.594H17.716A14.884 14.884 0 0 1 2.832 21.71v-4.839A14.883 14.883 0 0 1 17.716 1.988H33.2a14.883 14.883 0 0 1 14.88 14.883v4.839A14.884 14.884 0 0 1 33.2 36.594" style="fill:#fff"/>
            <path data-name="패스 25" d="m19.635 33.983 5.821 10.073 6.482-11.766z" style="fill:#fff"/>
        </g>
    </g>
    <g data-name="그룹 162">
        <g data-name="그룹 161" transform="translate(13.008 16.898)" style="clip-path:url(#j6qb8ikm8b)">
            <path data-name="사각형 71" transform="translate(-.004)" style="fill:#04050b;stroke:#04050b;stroke-linecap:round;stroke-width:4px" d="M0 0h6v6H0z"/>
        </g>
    </g>
    <g data-name="그룹 164">
        <g data-name="그룹 163" transform="translate(23.386 16.898)" style="clip-path:url(#qksvdvy7vc)">
            <path data-name="사각형 72" style="fill:#04050b;stroke:#04050b;stroke-linecap:round;stroke-width:4px" d="M0 0h6v6H0z"/>
        </g>
    </g>
    <g data-name="그룹 166">
        <g data-name="그룹 165" transform="translate(33.768 16.752)" style="clip-path:url(#1p89y1m6zd)">
            <path data-name="사각형 73" style="fill:#04050b;stroke:#04050b;stroke-linecap:round;stroke-width:4px" d="M0 0h6v6H0z"/>
        </g>
    </g>
</svg>
