<svg xmlns="http://www.w3.org/2000/svg" width="48.163" height="46.91" viewBox="0 0 48.163 46.91">
    <g data-name="ic/gnb/member off">
        <path data-name="패스 3" d="m35.284 24.266-.661-.35.475-.577a14.268 14.268 0 1 0-22.028 0l.475.577-.662.35A24.063 24.063 0 0 0 0 44.967a1.939 1.939 0 0 0 3.877 0 20.1 20.1 0 0 1 12.854-18.2l.269-.11.25.138a14.476 14.476 0 0 0 13.67 0l.25-.138.266.108a20.1 20.1 0 0 1 12.854 18.2 1.939 1.939 0 0 0 3.877.008v-.008a24.061 24.061 0 0 0-12.879-20.7m-4.526-2.084a10.194 10.194 0 0 1-13.347 0 10.393 10.393 0 1 1 13.347 0" transform="translate(0 .001)" style="fill:#565568"/>
    </g>
</svg>
