<svg xmlns="http://www.w3.org/2000/svg" width="48" height="48" viewBox="0 0 48 48">
    <g data-name="icon/page/edit">
        <g data-name="그룹 201">
            <path data-name="패스 91" d="M2.228 51.406A1.66 1.66 0 0 1 .6 49.429l2.77-14.311a1.661 1.661 0 0 1 3.261.632L4.4 47.268 15.379 43.6a1.661 1.661 0 0 1 1.053 3.151L2.754 51.32a1.662 1.662 0 0 1-.526.086" transform="translate(2.321 -8.242)" style="fill:#9396a7"/>
            <path data-name="패스 92" d="M41.037 18.214a1.656 1.656 0 0 1-1.106-.422L29.025 8.05a1.661 1.661 0 0 1-.132-2.345l4.6-5.15a1.661 1.661 0 0 1 2.343-.132l10.908 9.741a1.661 1.661 0 0 1 .133 2.346l-4.6 5.151a1.657 1.657 0 0 1-1.239.554M32.477 6.679l8.429 7.529 2.388-2.673-8.432-7.528z" transform="translate(-4.791 .367)" style="fill:#9396a7"/>
            <path data-name="패스 93" d="m10.19 50.064-5.764-5.22L2.8 52.567z" transform="translate(1.753 -11.064)" style="fill:#9396a7"/>
            <path data-name="패스 94" d="M16.854 39.989a1.655 1.655 0 0 1-1.107-.422L4.842 29.825a1.661 1.661 0 0 1-.125-2.352L22.788 7.457a1.66 1.66 0 0 1 2.34-.126l10.906 9.741a1.663 1.663 0 0 1 .126 2.352L18.086 39.441a1.655 1.655 0 0 1-1.232.548M8.3 28.46l8.426 7.528 15.848-17.55-8.428-7.529z" transform="translate(1.373 -1.394)" style="fill:#9396a7"/>
            <path data-name="사각형 137" transform="translate(2.466 44.677)" style="fill:#9396a7" d="M0 0h42.136v3.322H0z"/>
        </g>
        <path data-name="사각형 48" style="fill:none" d="M0 0h48v48H0z"/>
    </g>
</svg>
